<mxfile modified="2019-11-17T11:15:11.776Z" host="www.draw.io" agent="Mozilla/5.0 (Windows NT 10.0; Win64; x64) AppleWebKit/537.36 (KHTML, like Gecko) Chrome/78.0.3904.97 Safari/537.36" etag="jLB8Tb5NpKabvlAakSl4" version="12.2.6" type="github" pages="2">
  <diagram id="IUs1uMZeL_d6REgJ8A4V" name="Page-1">
    <mxGraphModel dx="1024" dy="534" grid="1" gridSize="10" guides="1" tooltips="1" connect="1" arrows="1" fold="1" page="1" pageScale="1" pageWidth="827" pageHeight="1169" math="0" shadow="0">
      <root>
        <mxCell id="0"/>
        <mxCell id="1" parent="0"/>
        <mxCell id="7WWLLxYjyGGPt_mnVwUC-1" value=":System" style="shape=umlLifeline;perimeter=lifelinePerimeter;whiteSpace=wrap;html=1;container=1;collapsible=0;recursiveResize=0;outlineConnect=0;" parent="1" vertex="1">
          <mxGeometry x="340" y="120" width="100" height="640" as="geometry"/>
        </mxCell>
        <mxCell id="7WWLLxYjyGGPt_mnVwUC-21" value="" style="html=1;points=[];perimeter=orthogonalPerimeter;" parent="7WWLLxYjyGGPt_mnVwUC-1" vertex="1">
          <mxGeometry x="45" y="50" width="10" height="590" as="geometry"/>
        </mxCell>
        <mxCell id="7WWLLxYjyGGPt_mnVwUC-47" value="12 : Commit the vote" style="edgeStyle=orthogonalEdgeStyle;html=1;align=left;spacingLeft=2;endArrow=block;rounded=0;entryX=1;entryY=0;" parent="7WWLLxYjyGGPt_mnVwUC-1" edge="1">
          <mxGeometry relative="1" as="geometry">
            <mxPoint x="60" y="450" as="sourcePoint"/>
            <Array as="points">
              <mxPoint x="80" y="447"/>
            </Array>
            <mxPoint x="50.333333333333485" y="479.16666666666674" as="targetPoint"/>
          </mxGeometry>
        </mxCell>
        <mxCell id="7WWLLxYjyGGPt_mnVwUC-3" value="" style="shape=umlLifeline;participant=umlActor;perimeter=lifelinePerimeter;whiteSpace=wrap;html=1;container=1;collapsible=0;recursiveResize=0;verticalAlign=top;spacingTop=36;labelBackgroundColor=#ffffff;outlineConnect=0;" parent="1" vertex="1">
          <mxGeometry x="180" y="120" width="20" height="640" as="geometry"/>
        </mxCell>
        <mxCell id="7WWLLxYjyGGPt_mnVwUC-67" value="" style="html=1;points=[];perimeter=orthogonalPerimeter;" parent="7WWLLxYjyGGPt_mnVwUC-3" vertex="1">
          <mxGeometry x="5" y="180" width="10" height="470" as="geometry"/>
        </mxCell>
        <mxCell id="7WWLLxYjyGGPt_mnVwUC-4" value="&lt;b&gt;User&lt;/b&gt;" style="text;html=1;resizable=0;points=[];autosize=1;align=left;verticalAlign=top;spacingTop=-4;" parent="1" vertex="1">
          <mxGeometry x="170" y="160" width="40" height="20" as="geometry"/>
        </mxCell>
        <mxCell id="7WWLLxYjyGGPt_mnVwUC-5" value="Login" style="text;html=1;resizable=0;points=[];autosize=1;align=left;verticalAlign=top;spacingTop=-4;" parent="1" vertex="1">
          <mxGeometry x="273" y="191" width="40" height="20" as="geometry"/>
        </mxCell>
        <mxCell id="7WWLLxYjyGGPt_mnVwUC-7" value=":Database" style="shape=umlLifeline;perimeter=lifelinePerimeter;whiteSpace=wrap;html=1;container=1;collapsible=0;recursiveResize=0;outlineConnect=0;" parent="1" vertex="1">
          <mxGeometry x="635" y="123" width="100" height="630" as="geometry"/>
        </mxCell>
        <mxCell id="7WWLLxYjyGGPt_mnVwUC-20" value="" style="html=1;points=[];perimeter=orthogonalPerimeter;" parent="7WWLLxYjyGGPt_mnVwUC-7" vertex="1">
          <mxGeometry x="45" y="70" width="10" height="560" as="geometry"/>
        </mxCell>
        <mxCell id="7WWLLxYjyGGPt_mnVwUC-8" value="2 : Validate QR code" style="text;html=1;resizable=0;points=[];autosize=1;align=left;verticalAlign=top;spacingTop=-4;" parent="1" vertex="1">
          <mxGeometry x="505" y="211" width="130" height="20" as="geometry"/>
        </mxCell>
        <mxCell id="7WWLLxYjyGGPt_mnVwUC-9" value="" style="endArrow=open;endFill=1;endSize=12;html=1;" parent="1" target="7WWLLxYjyGGPt_mnVwUC-1" edge="1">
          <mxGeometry width="160" relative="1" as="geometry">
            <mxPoint x="190" y="215" as="sourcePoint"/>
            <mxPoint x="350" y="215" as="targetPoint"/>
          </mxGeometry>
        </mxCell>
        <mxCell id="7WWLLxYjyGGPt_mnVwUC-10" value="" style="endArrow=block;endFill=1;endSize=12;html=1;" parent="1" target="7WWLLxYjyGGPt_mnVwUC-7" edge="1">
          <mxGeometry width="160" relative="1" as="geometry">
            <mxPoint x="390" y="234.5" as="sourcePoint"/>
            <mxPoint x="589.5" y="234.5" as="targetPoint"/>
          </mxGeometry>
        </mxCell>
        <mxCell id="7WWLLxYjyGGPt_mnVwUC-19" value="&lt;font style=&quot;font-size: 12px&quot;&gt;3: Valid QR code&lt;/font&gt;" style="html=1;verticalAlign=bottom;endArrow=open;dashed=1;endSize=8;" parent="1" edge="1">
          <mxGeometry x="-0.0839" relative="1" as="geometry">
            <mxPoint x="682" y="274" as="sourcePoint"/>
            <mxPoint x="400" y="274" as="targetPoint"/>
            <mxPoint as="offset"/>
          </mxGeometry>
        </mxCell>
        <mxCell id="7WWLLxYjyGGPt_mnVwUC-22" value="" style="endArrow=open;endFill=1;endSize=12;html=1;exitX=0.02;exitY=0.231;exitDx=0;exitDy=0;exitPerimeter=0;" parent="1" edge="1" source="7WWLLxYjyGGPt_mnVwUC-21">
          <mxGeometry width="160" relative="1" as="geometry">
            <mxPoint x="386.51" y="313.25199999999995" as="sourcePoint"/>
            <mxPoint x="199.5" y="307" as="targetPoint"/>
            <Array as="points"/>
          </mxGeometry>
        </mxCell>
        <mxCell id="7WWLLxYjyGGPt_mnVwUC-23" value="4 :Ask for Image Capture" style="text;html=1;resizable=0;points=[];autosize=1;align=left;verticalAlign=top;spacingTop=-4;" parent="1" vertex="1">
          <mxGeometry x="225" y="310" width="150" height="20" as="geometry"/>
        </mxCell>
        <mxCell id="7WWLLxYjyGGPt_mnVwUC-26" value="" style="endArrow=block;endFill=1;endSize=12;html=1;" parent="1" edge="1">
          <mxGeometry width="160" relative="1" as="geometry">
            <mxPoint x="390.5" y="383.5" as="sourcePoint"/>
            <mxPoint x="680" y="384" as="targetPoint"/>
          </mxGeometry>
        </mxCell>
        <mxCell id="7WWLLxYjyGGPt_mnVwUC-27" value="6 : Check Images matches" style="text;html=1;resizable=0;points=[];autosize=1;align=left;verticalAlign=top;spacingTop=-4;" parent="1" vertex="1">
          <mxGeometry x="485" y="356.5" width="160" height="20" as="geometry"/>
        </mxCell>
        <mxCell id="7WWLLxYjyGGPt_mnVwUC-30" value="&lt;font style=&quot;font-size: 12px&quot;&gt;7 : Matched&lt;/font&gt;" style="html=1;verticalAlign=bottom;endArrow=open;dashed=1;endSize=8;" parent="1" edge="1">
          <mxGeometry x="-0.0837" relative="1" as="geometry">
            <mxPoint x="680" y="430" as="sourcePoint"/>
            <mxPoint x="400" y="430" as="targetPoint"/>
            <mxPoint as="offset"/>
          </mxGeometry>
        </mxCell>
        <mxCell id="7WWLLxYjyGGPt_mnVwUC-33" value="&amp;nbsp;8 : check If user verified" style="text;html=1;resizable=0;points=[];autosize=1;align=left;verticalAlign=top;spacingTop=-4;" parent="1" vertex="1">
          <mxGeometry x="510" y="457" width="150" height="20" as="geometry"/>
        </mxCell>
        <mxCell id="7WWLLxYjyGGPt_mnVwUC-39" value="10 : Display candidates" style="text;html=1;resizable=0;points=[];autosize=1;align=left;verticalAlign=top;spacingTop=-4;" parent="1" vertex="1">
          <mxGeometry x="235" y="503" width="140" height="20" as="geometry"/>
        </mxCell>
        <mxCell id="7WWLLxYjyGGPt_mnVwUC-43" value="&lt;span style=&quot;text-align: left ; background-color: rgb(248 , 249 , 250)&quot;&gt;&lt;font style=&quot;font-size: 12px&quot;&gt;5 : Capture Image&lt;/font&gt;&lt;/span&gt;" style="html=1;verticalAlign=bottom;endArrow=open;dashed=1;endSize=8;" parent="1" edge="1">
          <mxGeometry relative="1" as="geometry">
            <mxPoint x="200" y="350" as="sourcePoint"/>
            <mxPoint x="380" y="350" as="targetPoint"/>
            <Array as="points">
              <mxPoint x="310" y="350"/>
            </Array>
          </mxGeometry>
        </mxCell>
        <mxCell id="7WWLLxYjyGGPt_mnVwUC-49" value="14 : Change User status" style="text;html=1;resizable=0;points=[];autosize=1;align=left;verticalAlign=top;spacingTop=-4;" parent="1" vertex="1">
          <mxGeometry x="485" y="653" width="150" height="20" as="geometry"/>
        </mxCell>
        <mxCell id="7WWLLxYjyGGPt_mnVwUC-56" value="" style="endArrow=block;endFill=1;endSize=12;html=1;" parent="1" edge="1">
          <mxGeometry width="160" relative="1" as="geometry">
            <mxPoint x="385" y="522.5" as="sourcePoint"/>
            <mxPoint x="200" y="523" as="targetPoint"/>
          </mxGeometry>
        </mxCell>
        <mxCell id="7WWLLxYjyGGPt_mnVwUC-57" value="&lt;span style=&quot;font-size: 12px ; text-align: left ; background-color: rgb(248 , 249 , 250)&quot;&gt;11 : Select and cast a vote&lt;/span&gt;" style="html=1;verticalAlign=bottom;endArrow=open;dashed=1;endSize=8;exitX=1.059;exitY=0.918;exitDx=0;exitDy=0;exitPerimeter=0;" parent="1" edge="1">
          <mxGeometry x="-0.0837" relative="1" as="geometry">
            <mxPoint x="195.58999999999992" y="566.146" as="sourcePoint"/>
            <mxPoint x="380" y="566" as="targetPoint"/>
            <mxPoint as="offset"/>
          </mxGeometry>
        </mxCell>
        <mxCell id="7WWLLxYjyGGPt_mnVwUC-77" value="&amp;nbsp;1 :&amp;nbsp;" style="text;html=1;resizable=0;points=[];autosize=1;align=left;verticalAlign=top;spacingTop=-4;" parent="1" vertex="1">
          <mxGeometry x="253" y="191" width="40" height="20" as="geometry"/>
        </mxCell>
        <mxCell id="0Hedbd5bsXP9dE2Ox4K0-8" value="" style="endArrow=none;dashed=1;html=1;" parent="1" target="7WWLLxYjyGGPt_mnVwUC-3" edge="1">
          <mxGeometry width="50" height="50" relative="1" as="geometry">
            <mxPoint x="190" y="800" as="sourcePoint"/>
            <mxPoint x="230" y="750" as="targetPoint"/>
          </mxGeometry>
        </mxCell>
        <mxCell id="0Hedbd5bsXP9dE2Ox4K0-9" value="" style="endArrow=none;dashed=1;html=1;" parent="1" edge="1">
          <mxGeometry width="50" height="50" relative="1" as="geometry">
            <mxPoint x="389" y="810" as="sourcePoint"/>
            <mxPoint x="389" y="760" as="targetPoint"/>
          </mxGeometry>
        </mxCell>
        <mxCell id="0Hedbd5bsXP9dE2Ox4K0-10" value="" style="endArrow=none;dashed=1;html=1;" parent="1" edge="1">
          <mxGeometry width="50" height="50" relative="1" as="geometry">
            <mxPoint x="685" y="810" as="sourcePoint"/>
            <mxPoint x="684.5" y="760" as="targetPoint"/>
          </mxGeometry>
        </mxCell>
        <mxCell id="0Hedbd5bsXP9dE2Ox4K0-11" value="" style="endArrow=open;endFill=1;endSize=12;html=1;" parent="1" source="7WWLLxYjyGGPt_mnVwUC-1" edge="1">
          <mxGeometry width="160" relative="1" as="geometry">
            <mxPoint x="405.01" y="666.0231791992187" as="sourcePoint"/>
            <mxPoint x="200" y="640" as="targetPoint"/>
            <Array as="points">
              <mxPoint x="300" y="640"/>
            </Array>
          </mxGeometry>
        </mxCell>
        <mxCell id="0Hedbd5bsXP9dE2Ox4K0-12" value="13 : Voting Successfull" style="text;html=1;resizable=0;points=[];autosize=1;align=left;verticalAlign=top;spacingTop=-4;" parent="1" vertex="1">
          <mxGeometry x="250" y="619" width="140" height="20" as="geometry"/>
        </mxCell>
        <mxCell id="JbCod8FlcxEtAGwF2pyX-7" value="" style="endArrow=block;endFill=1;endSize=12;html=1;" edge="1" parent="1">
          <mxGeometry width="160" relative="1" as="geometry">
            <mxPoint x="390" y="456.5" as="sourcePoint"/>
            <mxPoint x="680" y="457" as="targetPoint"/>
          </mxGeometry>
        </mxCell>
        <mxCell id="JbCod8FlcxEtAGwF2pyX-8" value="&lt;font style=&quot;font-size: 12px&quot;&gt;9 : if verified&lt;/font&gt;" style="html=1;verticalAlign=bottom;endArrow=open;dashed=1;endSize=8;" edge="1" parent="1">
          <mxGeometry x="-0.1034" y="20" relative="1" as="geometry">
            <mxPoint x="680" y="490" as="sourcePoint"/>
            <mxPoint x="400" y="490" as="targetPoint"/>
            <mxPoint as="offset"/>
          </mxGeometry>
        </mxCell>
        <mxCell id="JbCod8FlcxEtAGwF2pyX-13" value="" style="endArrow=block;endFill=1;endSize=12;html=1;" edge="1" parent="1">
          <mxGeometry width="160" relative="1" as="geometry">
            <mxPoint x="385.5" y="673" as="sourcePoint"/>
            <mxPoint x="680" y="674" as="targetPoint"/>
          </mxGeometry>
        </mxCell>
        <mxCell id="JbCod8FlcxEtAGwF2pyX-14" value="&lt;font style=&quot;font-size: 12px&quot;&gt;&amp;nbsp;15: User status changed&lt;/font&gt;" style="html=1;verticalAlign=bottom;endArrow=open;dashed=1;endSize=8;" edge="1" parent="1">
          <mxGeometry x="-0.0837" relative="1" as="geometry">
            <mxPoint x="690" y="710" as="sourcePoint"/>
            <mxPoint x="400" y="710" as="targetPoint"/>
            <mxPoint as="offset"/>
          </mxGeometry>
        </mxCell>
        <mxCell id="JbCod8FlcxEtAGwF2pyX-15" value="" style="endArrow=open;endFill=1;endSize=12;html=1;" edge="1" parent="1">
          <mxGeometry width="160" relative="1" as="geometry">
            <mxPoint x="390" y="735" as="sourcePoint"/>
            <mxPoint x="200" y="735" as="targetPoint"/>
            <Array as="points">
              <mxPoint x="300.5" y="735"/>
            </Array>
          </mxGeometry>
        </mxCell>
        <mxCell id="JbCod8FlcxEtAGwF2pyX-16" value="16: redirect to home page" style="text;html=1;resizable=0;points=[];autosize=1;align=left;verticalAlign=top;spacingTop=-4;" vertex="1" parent="1">
          <mxGeometry x="235" y="740" width="150" height="20" as="geometry"/>
        </mxCell>
      </root>
    </mxGraphModel>
  </diagram>
  <diagram id="wl1rN5RBaoSvX7chepCj" name="Page-2">
    <mxGraphModel dx="1116" dy="591" grid="1" gridSize="10" guides="1" tooltips="1" connect="1" arrows="1" fold="1" page="1" pageScale="1" pageWidth="827" pageHeight="1169" math="0" shadow="0">
      <root>
        <mxCell id="yCaHIdo6JLgv0KUMPRH8-0"/>
        <mxCell id="yCaHIdo6JLgv0KUMPRH8-1" parent="yCaHIdo6JLgv0KUMPRH8-0"/>
      </root>
    </mxGraphModel>
  </diagram>
</mxfile>
